<?xml version="1.0" encoding="UTF-8"?>
<svg width="24px" height="24px" viewBox="0 0 24 24" version="1.1" xmlns="http://www.w3.org/2000/svg" xmlns:xlink="http://www.w3.org/1999/xlink">
    <title>Google</title>
    <g id="Page-1" stroke="none" stroke-width="1" fill="none" fill-rule="evenodd">
        <g id="Google" fill-rule="nonzero">
            <path d="M1.524,17.316 C0.744,15.72 0.3,13.92 0.3,12 C0.3,10.08 0.738,8.28 1.524,6.684 L5.544,9.768 C5.322,10.47 5.196,11.22 5.196,12 C5.196,12.78 5.316,13.53 5.556,14.232 L1.524,17.316 L1.524,17.316 Z" id="Path" fill="#FBBC05"></path>
            <path d="M1.524,6.684 C3.48,2.712 7.542,0 12.264,0 C15.324,0 18.042,1.14 20.16,3 L16.68,6.492 C15.48,5.508 13.962,4.908 12.27,4.908 C9.132,4.908 6.48,6.948 5.55,9.768 L1.53,6.684 L1.524,6.684 Z" id="Path" fill="#EA4335"></path>
            <path d="M1.524,17.316 L5.544,14.22 C6.474,17.052 9.126,19.092 12.264,19.092 C15.594,19.092 18.096,17.4 18.696,14.454 L12.276,14.454 L12.276,9.81 L23.436,9.81 C23.592,10.53 23.7,11.286 23.7,11.994 C23.7,19.632 18.258,23.994 12.27,23.994 C7.542,23.994 3.468,21.276 1.53,17.31 L1.524,17.316 Z" id="Path" fill="#34A853"></path>
            <path d="M20.076,21.012 L16.254,18.048 C17.496,17.256 18.366,16.038 18.69,14.448 L12.27,14.448 L12.27,9.816 L23.43,9.816 C23.586,10.536 23.694,11.292 23.694,12 C23.694,15.912 22.266,18.96 20.07,21.012 L20.076,21.012 Z" id="Path" fill="#4285F4"></path>
        </g>
    </g>
</svg>